<svg width="32" height="32" viewBox="0 0 32 32" fill="none" xmlns="http://www.w3.org/2000/svg">
<rect width="32" height="32" rx="6" fill="#F3F6F9"/>
<path d="M22.1381 10.9866C22.7155 11.564 22.725 12.4972 22.1594 13.0862L16.7425 18.7273C16.4672 19.014 16.0894 19.1797 15.692 19.188L13.4167 19.2358L13.4648 16.9452C13.4729 16.5569 13.6314 16.1868 13.9068 15.913L19.4438 10.4076C20.0301 9.82467 20.9775 9.82602 21.5621 10.4106L22.1381 10.9866Z" fill="#6993FF"/>
<path opacity="0.3" d="M16.6 9.3335C16.9682 9.3335 17.2667 9.63197 17.2667 10.0002C17.2667 10.3684 16.9682 10.6668 16.6 10.6668H12C11.2636 10.6668 10.6667 11.2638 10.6667 12.0002V20.0002C10.6667 20.7365 11.2636 21.3335 12 21.3335H20C20.7364 21.3335 21.3333 20.7365 21.3333 20.0002V16.6668C21.3333 16.2986 21.6318 16.0002 22 16.0002C22.3682 16.0002 22.6667 16.2986 22.6667 16.6668V20.0002C22.6667 21.4729 21.4728 22.6668 20 22.6668H12C10.5273 22.6668 9.33334 21.4729 9.33334 20.0002V12.0002C9.33334 10.5274 10.5273 9.3335 12 9.3335H16.6Z" fill="#6993FF"/>
</svg>
