<svg width="56" height="56" viewBox="0 0 56 56" fill="none" xmlns="http://www.w3.org/2000/svg">
<path fill-rule="evenodd" clip-rule="evenodd" d="M28.0067 30.3333C28.0045 30.3333 28.0022 30.3333 28 30.3333C27.9978 30.3333 27.9955 30.3333 27.9933 30.3333H14C10.134 30.3333 7 27.1993 7 23.3333C7 19.4673 10.134 16.3333 14 16.3333H14.9319C15.6812 16.3333 16.0559 16.3333 16.3152 16.1503C16.5745 15.9673 16.7176 15.5645 17.0038 14.7591C18.6106 10.2376 22.9272 7 28 7C33.0728 7 37.3894 10.2376 38.9962 14.7591C39.2824 15.5645 39.4255 15.9673 39.6848 16.1503C39.9441 16.3333 40.3188 16.3333 41.0681 16.3333H45C47.2091 16.3333 49 18.1242 49 20.3333V26.3333C49 28.5425 47.2091 30.3333 45 30.3333H28.0067Z" fill="#6993FF" fill-opacity="0.25"/>
<path d="M22.5202 27.1869C22.3249 27.3821 22.0083 27.3821 21.8131 27.1869C21.6178 26.9916 21.6178 26.675 21.8131 26.4798L22.5202 27.1869ZM28 21L27.6464 20.6464L28 20.2929L28.3535 20.6464L28 21ZM34.1868 26.4798C34.3821 26.675 34.3821 26.9916 34.1868 27.1869C33.9916 27.3821 33.675 27.3821 33.4797 27.1869L34.1868 26.4798ZM28.5 44.3333C28.5 44.6095 28.2761 44.8333 28 44.8333C27.7238 44.8333 27.5 44.6095 27.5 44.3333L28.5 44.3333ZM21.8131 26.4798L27.6464 20.6464L28.3535 21.3536L22.5202 27.1869L21.8131 26.4798ZM28.3535 20.6464L34.1868 26.4798L33.4797 27.1869L27.6464 21.3536L28.3535 20.6464ZM28.5 21L28.5 44.3333L27.5 44.3333L27.5 21L28.5 21Z" fill="#6993FF"/>
</svg>
